<?xml version="1.0" encoding="utf-8"?>
<!-- Generator: Adobe Illustrator 24.1.2, SVG Export Plug-In . SVG Version: 6.00 Build 0)  -->
<svg version="1.1" id="Warstwa_3" xmlns="http://www.w3.org/2000/svg" xmlns:xlink="http://www.w3.org/1999/xlink" x="0px" y="0px"
	 viewBox="0 0 430 430" style="enable-background:new 0 0 430 430;" xml:space="preserve">
<style type="text/css">
	.st0{fill:#08a88a;}
	.st1{fill:#121331;}
	.st2{fill:none;}
	.st3{fill-opacity:0;}
</style>
<g>
	<path class="st1" d="M384.5,233.65c-3.48,0-6.3-2.82-6.3-6.3c0-54.49-33.77-157.55-161.59-157.55
		C96.43,69.8,52.8,163.51,52.8,226.5c0,3.48-2.82,6.3-6.3,6.3s-6.3-2.82-6.3-6.3c0-39.42,15.18-80.94,40.59-111.06
		c22.42-26.57,64.18-58.24,135.82-58.24c57.73,0,104.75,20.55,135.99,59.42c24.28,30.21,38.2,70.57,38.2,110.73
		C390.8,230.83,387.98,233.65,384.5,233.65z"/>
	<g>
		<path class="st0" d="M61.5,213H31v30.5h30.5V213z"/>
		<path class="st0" d="M61.5,249.5H31c-3.31,0-6-2.69-6-6V213c0-3.31,2.69-6,6-6h30.5c3.31,0,6,2.69,6,6v30.5
			C67.5,246.81,64.81,249.5,61.5,249.5z M37,237.5h18.5V219H37V237.5z"/>
	</g>
	<g>
		<path class="st0" d="M399,213h-30.5v30.5H399V213z"/>
		<path class="st0" d="M399,249.5h-30.5c-3.31,0-6-2.69-6-6V213c0-3.31,2.69-6,6-6H399c3.31,0,6,2.69,6,6v30.5
			C405,246.81,402.31,249.5,399,249.5z M374.5,237.5H393V219h-18.5V237.5z"/>
	</g>
	<path class="st0" d="M231.5,84.8H201c-3.48,0-6.3-2.82-6.3-6.3v-8.7H77.8v0.95c0,3.48-2.82,6.3-6.3,6.3H56
		c-3.48,0-6.3-2.82-6.3-6.3v-15.5c0-3.48,2.82-6.3,6.3-6.3h15.5c3.48,0,6.3,2.82,6.3,6.3v1.95h116.9V48c0-3.48,2.82-6.3,6.3-6.3
		h30.5c3.48,0,6.3,2.82,6.3,6.3v9.2h116.9v-1.95c0-3.48,2.82-6.3,6.3-6.3h15.5c3.48,0,6.3,2.82,6.3,6.3v15.5
		c0,3.48-2.82,6.3-6.3,6.3H361c-3.48,0-6.3-2.82-6.3-6.3V69.8H237.8v8.7C237.8,81.98,234.98,84.8,231.5,84.8z M207.3,72.2h17.9v-2.4
		h-17.9V72.2z M207.3,57.2h17.9v-2.9h-17.9V57.2z"/>
	<path class="st0" d="M231.5,48H201v30.5h30.5V48z"/>
	<path class="st0" d="M255,307.8h-79c-2.83,0-5.31-1.88-6.07-4.61l-19.5-70c-0.49-1.77-0.19-3.67,0.83-5.19l60.5-90.5
		c1.18-1.76,3.19-2.8,5.29-2.8c2.12,0.02,4.09,1.1,5.24,2.89l59,91.5c1,1.56,1.27,3.48,0.73,5.25l-21,69
		C260.22,305.99,257.77,307.8,255,307.8z M180.78,295.2h69.55l18.79-61.74L223.3,162.4v79.1c0,3.48-2.82,6.3-6.3,6.3
		s-6.3-2.82-6.3-6.3v-79.74l-47.35,70.84L180.78,295.2z"/>
	<g>
		<path class="st3" d="M216.75,237.5c-2.62,0-4.75,2.13-4.75,4.75s2.13,4.75,4.75,4.75s4.75-2.13,4.75-4.75
			S219.37,237.5,216.75,237.5z"/>
		<path class="st0" d="M216.75,253.3c-6.09,0-11.05-4.96-11.05-11.05s4.96-11.05,11.05-11.05s11.05,4.96,11.05,11.05
			S222.84,253.3,216.75,253.3z M216.75,240.7c-0.85,0-1.55,0.7-1.55,1.55s0.7,1.55,1.55,1.55s1.55-0.7,1.55-1.55
			S217.6,240.7,216.75,240.7z"/>
	</g>
	<path class="st1" d="M263.5,337.8h-98c-3.48,0-6.3-2.82-6.3-6.3V301c0-3.48,2.82-6.3,6.3-6.3h98c3.48,0,6.3,2.82,6.3,6.3v30.5
		C269.8,334.98,266.98,337.8,263.5,337.8z M171.8,325.2h85.4v-17.9h-85.4V325.2z"/>
	<path class="st1" d="M256.5,388.3h-81c-3.48,0-6.3-2.82-6.3-6.3v-50.5c0-3.48,2.82-6.3,6.3-6.3h81c3.48,0,6.3,2.82,6.3,6.3V382
		C262.8,385.48,259.98,388.3,256.5,388.3z M181.8,375.7h68.4v-37.9h-68.4V375.7z"/>
</g>
</svg>
