<?xml version="1.0" encoding="utf-8"?>
<!-- Generator: Adobe Illustrator 24.0.2, SVG Export Plug-In . SVG Version: 6.00 Build 0)  -->
<svg version="1.1" id="Warstwa_1" xmlns="http://www.w3.org/2000/svg" xmlns:xlink="http://www.w3.org/1999/xlink" x="0px" y="0px"
	 viewBox="0 0 430 430" style="enable-background:new 0 0 430 430;" xml:space="preserve">
<style type="text/css">
	.st0{fill:#ebe6ef;}
	.st1{opacity:0.5;}
	.st2{fill:#121331;}
	.st3{fill:#3A3347;}
	.st4{fill:#4bb3fd;}
	.st5{fill:#F24C00;}
	.st6{fill:#ffc738;}
	.st7{fill:#2ca58d;}
	.st8{display:none;}
	.st9{display:inline;fill:none;stroke:#121331;stroke-width:7;stroke-linecap:round;stroke-linejoin:round;}
	.st10{display:none;fill:none;stroke:#121331;stroke-width:7;stroke-linecap:round;stroke-linejoin:round;stroke-miterlimit:10;}
	.st11{fill:#F9C9C0;}
	.st12{fill:#F28BA8;}
	.st13{fill:#646E78;}
	.st14{fill:#B26836;}
	.st15{opacity:0.6;}
	.st16{opacity:0.7;}
	.st17{fill:#92140C;}
	.st18{opacity:0;}
	.st19{opacity:0.4;}
	.st20{opacity:0.8;}
	.st21{fill:none;}
	.st22{opacity:0.2;clip-path:url(#SVGID_2_);}
	.st23{opacity:0.2;clip-path:url(#SVGID_4_);}
	.st24{opacity:0.2;clip-path:url(#SVGID_6_);}
	.st25{opacity:0.2;clip-path:url(#SVGID_8_);}
	.st26{opacity:0.2;clip-path:url(#SVGID_10_);}
	.st27{opacity:0.2;clip-path:url(#SVGID_12_);}
	.st28{fill:#FFFFFF;}
</style>
<g>
	<g>
		<g>
			<polygon class="st0" points="37,334 153,373.5 153,95.5 36.5,56 			"/>
		</g>
		<g>
			<polygon class="st0" points="153,373.5 277,334 277,56 153,95.5 			"/>
		</g>
		<g>
			<polygon class="st0" points="394,374 393.5,96 277,56 277,334 			"/>
		</g>
	</g>
	<g class="st1">
		<polygon class="st0" points="37,334 153,373.5 153,95.5 36.5,56 		"/>
	</g>
	<g class="st1">
		<polygon class="st0" points="394,374 393.5,96 277,56 277,334 		"/>
	</g>
</g>
<g>
	<g>
		<polygon class="st7" points="363.73,117.91 363.73,331.82 276.99,302.95 152.99,341.93 66.77,312.9 66.77,312.89 152.99,341.92 
			152.99,127.55 276.99,88.07 		"/>
	</g>
	<g class="st1">
		<polygon class="st7" points="277,302.95 363.73,331.82 363.73,117.91 277,88.07 		"/>
	</g>
	<g>
		<polygon class="st4" points="152.99,127.55 152.99,341.92 66.77,312.89 66.77,98.34 		"/>
	</g>
</g>
<g>
	<path class="st4" d="M153,341.93c47.76-15.18,78.99-80.08,58.6-135.15C189.47,147,277,88.07,277,88.07l-124,39.48V341.93z"/>
</g>
<g class="st1">
	<polygon class="st4" points="153,341.92 66.77,312.89 66.77,98.34 153,127.55 	"/>
</g>
<g>
	<path class="st0" d="M340.5,291.5c-0.02,0-0.05,0-0.07,0c-1.93-0.04-3.47-1.64-3.43-3.57c0.08-3.78,0.12-7.5,0.12-11.07
		c0-1.97-0.01-3.9-0.04-5.8c-0.02-1.93,1.52-3.52,3.46-3.54c0.01,0,0.03,0,0.04,0c1.91,0,3.48,1.54,3.5,3.46
		c0.02,1.93,0.04,3.89,0.04,5.89c0,3.62-0.04,7.39-0.12,11.22C343.96,289.98,342.4,291.5,340.5,291.5z M167.98,273.49
		c-1.57,0-3-1.06-3.39-2.65c-0.47-1.88,0.67-3.77,2.55-4.24c9.51-2.37,18.06-7.93,25.41-16.52c1.26-1.47,3.47-1.64,4.93-0.38
		s1.64,3.47,0.39,4.93c-8.32,9.72-18.08,16.04-29.03,18.77C168.55,273.45,168.26,273.49,167.98,273.49z M140.43,272.24
		c-0.4,0-0.81-0.07-1.21-0.22c-10.23-3.79-19.13-11.26-26.46-22.23c-1.07-1.61-0.64-3.78,0.96-4.85c1.61-1.07,3.78-0.64,4.85,0.96
		c6.49,9.71,14.25,16.29,23.07,19.55c1.81,0.67,2.74,2.68,2.07,4.5C143.19,271.37,141.86,272.24,140.43,272.24z M339.21,246.57
		c-1.79,0-3.31-1.36-3.48-3.18c-1.13-12.16-2.99-22.86-5.52-31.81c-0.53-1.86,0.55-3.79,2.41-4.32c1.86-0.53,3.79,0.55,4.32,2.41
		c2.65,9.35,4.59,20.48,5.76,33.07c0.18,1.92-1.24,3.63-3.16,3.81C339.43,246.56,339.32,246.57,339.21,246.57z M209.68,232.01
		c-0.47,0-0.95-0.1-1.41-0.3c-1.77-0.78-2.57-2.85-1.79-4.61c2.05-4.65,3.96-9.75,5.69-15.16c1.82-5.7,3.88-10.99,6.14-15.72
		c0.83-1.75,2.92-2.49,4.66-1.66c1.75,0.83,2.49,2.92,1.66,4.66c-2.12,4.45-4.06,9.44-5.79,14.84c-1.8,5.65-3.8,10.98-5.95,15.85
		C212.31,231.23,211.02,232.01,209.68,232.01z M103.66,226.18c-1.45,0-2.81-0.91-3.31-2.37c-3.25-9.5-5.95-20.44-8.03-32.53
		c-0.33-1.91,0.95-3.71,2.86-4.04c1.9-0.33,3.71,0.95,4.04,2.86c2.01,11.72,4.62,22.3,7.75,31.44c0.63,1.83-0.35,3.82-2.18,4.44
		C104.42,226.12,104.04,226.18,103.66,226.18z M321.98,188.84c-1.08,0-2.15-0.5-2.83-1.44c-6.16-8.48-14.22-14.15-24.63-17.34
		c-1.85-0.57-2.89-2.52-2.32-4.37c0.57-1.85,2.53-2.89,4.37-2.32c11.92,3.65,21.15,10.17,28.24,19.91c1.14,1.56,0.79,3.75-0.77,4.89
		C323.41,188.63,322.69,188.84,321.98,188.84z M237.77,178.72c-0.98,0-1.95-0.41-2.64-1.21c-1.27-1.46-1.11-3.67,0.35-4.94
		c8.85-7.68,19.68-11.95,32.21-12.68c1.91-0.11,3.59,1.36,3.7,3.29c0.11,1.93-1.36,3.59-3.29,3.7c-11.1,0.65-20.27,4.24-28.03,10.98
		C239.4,178.44,238.58,178.72,237.77,178.72z M92.24,166.43c-1.79,0-3.32-1.37-3.48-3.19c-0.91-10.32-1.5-21.47-1.76-33.17
		c-0.04-1.93,1.49-3.53,3.42-3.58c1.97-0.03,3.53,1.49,3.58,3.42c0.25,11.54,0.84,22.54,1.74,32.7c0.17,1.93-1.25,3.62-3.18,3.79
		C92.45,166.43,92.35,166.43,92.24,166.43z"/>
</g>
<g>
	<circle class="st6" cx="90.8" cy="132.65" r="13.5"/>
</g>
<g>
	<circle class="st6" cx="340.62" cy="293.3" r="13.5"/>
</g>
<g>
	<g>
		<g>
			<path class="st2" d="M153,377c-0.38,0-0.76-0.06-1.13-0.19l-116-39.5c-1.42-0.48-2.37-1.81-2.37-3.31l-0.5-278
				c0-1.13,0.54-2.19,1.46-2.85c0.92-0.66,2.1-0.83,3.17-0.47l116.5,39.5c1.42,0.48,2.38,1.81,2.38,3.31v278
				c0,1.13-0.54,2.19-1.46,2.85C154.44,376.78,153.72,377,153,377z M40.5,331.49l109,37.12V98.01L40.01,60.89L40.5,331.49z"/>
		</g>
		<g>
			<path class="st2" d="M153,377c-0.73,0-1.46-0.23-2.07-0.67c-0.9-0.66-1.43-1.71-1.43-2.83v-278c0-1.52,0.99-2.87,2.44-3.33
				l124-39.5c1.06-0.34,2.23-0.15,3.13,0.51s1.43,1.71,1.43,2.83v278c0,1.52-0.99,2.87-2.44,3.33l-124,39.5
				C153.72,376.95,153.36,377,153,377z M156.5,98.06v270.65l117-37.27V60.79L156.5,98.06z"/>
		</g>
		<g>
			<path class="st2" d="M394,377.5c-0.38,0-0.76-0.06-1.13-0.19l-117-40c-1.42-0.48-2.37-1.82-2.37-3.31V56
				c0-1.13,0.55-2.19,1.47-2.85c0.92-0.66,2.1-0.83,3.17-0.46l116.5,40c1.41,0.48,2.36,1.81,2.36,3.3l0.5,278
				c0,1.13-0.54,2.19-1.46,2.85C395.44,377.28,394.72,377.5,394,377.5z M280.5,331.5l109.99,37.6L390,98.5L280.5,60.9V331.5z"/>
		</g>
	</g>
</g>
</svg>
