<svg xmlns="http://www.w3.org/2000/svg" xmlns:xlink="http://www.w3.org/1999/xlink" width="1280" height="800" viewBox="0 0 1280 800"><defs><clipPath id="b"><rect width="1280" height="800"/></clipPath></defs><g id="a" clip-path="url(#b)"><rect width="1280" height="800" fill="#f5f5f5"/><g transform="translate(138 236)"><rect width="239" height="71" rx="4" fill="#b06"/><text transform="translate(120 40)" fill="#fff" font-size="16" font-family="Poppins-Regular, Poppins"><tspan x="-29.344" y="0">Normal</tspan></text></g><g transform="translate(500 236)"><g fill="none" stroke="#000" stroke-width="2"><rect width="239" height="71" rx="4" stroke="none"/><rect x="1" y="1" width="237" height="69" rx="3" fill="none"/></g><text transform="translate(120 40)" font-size="16" font-family="Poppins-Regular, Poppins"><tspan x="-74.736" y="0">Donate Navigation</tspan></text></g><g transform="translate(138 402)"><rect width="239" height="71" rx="4" fill="#e52d87"/><text transform="translate(120 40)" fill="#fff" font-size="16" font-family="Poppins-Regular, Poppins"><tspan x="-23.08" y="0">Hover</tspan></text></g><g transform="translate(138 568)"><rect width="239" height="71" rx="4" fill="#707070"/><text transform="translate(120 40)" fill="#fff" font-size="16" font-family="Poppins-Regular, Poppins"><tspan x="-34.952" y="0">Disabled</tspan></text></g><text transform="translate(640 98)" font-size="46" font-family="Poppins-Bold, Poppins" font-weight="700"><tspan x="-92.322" y="0">Buttons</tspan></text><rect width="98" height="3" transform="translate(591 117)"/><rect width="324" height="415" transform="translate(818 224)" fill="#fff"/><g transform="translate(862 290)"><rect width="239" height="71" rx="4" fill="#b06"/><text transform="translate(120 40)" fill="#fff" font-size="16" font-family="Poppins-Regular, Poppins"><tspan x="-29.344" y="0">Normal</tspan></text></g><g transform="translate(862 462)"><g fill="none" stroke="#000" stroke-width="2"><rect width="239" height="71" rx="4" stroke="none"/><rect x="1" y="1" width="237" height="69" rx="3" fill="none"/></g><text transform="translate(120 40)" font-size="16" font-family="Poppins-Regular, Poppins"><tspan x="-74.736" y="0">Donate Navigation</tspan></text></g><g transform="translate(505.497 -37)"><text transform="translate(32 460)" fill="#e52d87" font-size="24" font-family="Poppins-Regular, Poppins"><tspan x="0" y="25">READ MORE</tspan></text><path d="M13.395,4.7l1.561-1.561a1.681,1.681,0,0,1,2.384,0L31.008,16.8a1.681,1.681,0,0,1,0,2.384L17.339,32.857a1.681,1.681,0,0,1-2.384,0L13.395,31.3a1.689,1.689,0,0,1,.028-2.412L21.9,20.813H1.688A1.683,1.683,0,0,1,0,19.125v-2.25a1.683,1.683,0,0,1,1.688-1.687H21.9L13.423,7.116A1.677,1.677,0,0,1,13.395,4.7Z" transform="translate(180 462.5)" fill="#e52d87"/></g><g transform="translate(505.497 120)"><text transform="translate(32 460)" font-size="24" font-family="Poppins-Regular, Poppins"><tspan x="0" y="25">READ MORE</tspan></text><path d="M13.395,4.7l1.561-1.561a1.681,1.681,0,0,1,2.384,0L31.008,16.8a1.681,1.681,0,0,1,0,2.384L17.339,32.857a1.681,1.681,0,0,1-2.384,0L13.395,31.3a1.689,1.689,0,0,1,.028-2.412L21.9,20.813H1.688A1.683,1.683,0,0,1,0,19.125v-2.25a1.683,1.683,0,0,1,1.688-1.687H21.9L13.423,7.116A1.677,1.677,0,0,1,13.395,4.7Z" transform="translate(180 462.5)"/></g></g></svg>