<svg xmlns="http://www.w3.org/2000/svg" xmlns:xlink="http://www.w3.org/1999/xlink" width="1280" height="1371" viewBox="0 0 1280 1371"><defs><clipPath id="b"><rect width="1280" height="1371"/></clipPath></defs><g id="a" clip-path="url(#b)"><rect width="1280" height="1371" fill="#f5f5f5"/><text transform="translate(640 98)" font-size="46" font-family="Poppins-Bold, Poppins" font-weight="700"><tspan x="-74.267" y="0">Forms</tspan><tspan x="0" y="69"></tspan></text><rect width="98" height="3" transform="translate(591 122)"/><g transform="translate(228 271)"><text transform="translate(0 48)" font-size="46" font-family="Poppins-Bold, Poppins" font-weight="700"><tspan x="0" y="0">Get In Touch With Us</tspan></text></g><g transform="translate(228 388)" fill="none" stroke="#707070" stroke-width="1"><rect width="828" height="302" rx="4" stroke="none"/><rect x="0.5" y="0.5" width="827" height="301" rx="3.5" fill="none"/></g><g transform="translate(-5)"><g transform="translate(228 759)" fill="none" stroke="#707070" stroke-width="1"><rect width="398" height="71" rx="4" stroke="none"/><rect x="0.5" y="0.5" width="397" height="70" rx="3.5" fill="none"/></g><text transform="translate(259 800)" font-size="16" font-family="Poppins-Regular, Poppins"><tspan x="0" y="0">Enter Your Name</tspan></text></g><g transform="translate(-5 132)"><g transform="translate(228 759)" fill="none" stroke="#707070" stroke-width="1"><rect width="398" height="71" rx="4" stroke="none"/><rect x="0.5" y="0.5" width="397" height="70" rx="3.5" fill="none"/></g></g><g transform="translate(-2 276)"><g transform="translate(228 897)" fill="none" stroke="#e51d1d" stroke-width="1"><rect width="491" height="71" rx="4" stroke="none"/><rect x="0.5" y="0.5" width="490" height="70" rx="3.5" fill="none"/></g><text transform="translate(259 938)" stroke="#e51d1d" stroke-width="1" font-size="16" font-family="Poppins-Regular, Poppins"><tspan x="0" y="0">Enter Subject</tspan></text></g><g transform="translate(-2 124)"><g transform="translate(228 897)" fill="none" stroke="#707070" stroke-width="2"><rect width="491" height="71" rx="4" stroke="none"/><rect x="1" y="1" width="489" height="69" rx="3" fill="none"/></g><text transform="translate(259 938)" stroke="#707070" stroke-width="2" font-size="16" font-family="Poppins-Regular, Poppins"><tspan x="0" y="0">Enter Subject</tspan></text></g><line y2="51" transform="translate(249.5 899.5)" fill="none" stroke="#707070" stroke-width="4"/><text transform="translate(731 927)" font-size="16" font-family="Poppins-Regular, Poppins"><tspan x="-72.56" y="0">Active start typing</tspan></text><text transform="translate(814 1057)" font-size="16" font-family="Poppins-Regular, Poppins"><tspan x="-47.088" y="0">Active Form</tspan><tspan x="-2.136" y="24"> </tspan></text><text transform="translate(814 1211)" font-size="16" font-family="Poppins-Regular, Poppins"><tspan x="-42.072" y="0">Error Entry </tspan></text></g></svg>