<svg xmlns="http://www.w3.org/2000/svg" xmlns:xlink="http://www.w3.org/1999/xlink" width="1280" height="800" viewBox="0 0 1280 800"><defs><clipPath id="b"><rect width="1280" height="800"/></clipPath></defs><g id="a" clip-path="url(#b)"><rect width="1280" height="800" fill="#f5f5f5"/><text transform="translate(640 98)" font-size="46" font-family="Poppins-Bold, Poppins" font-weight="700"><tspan x="-112.999" y="0">Site Icons</tspan><tspan x="0" y="69"></tspan></text><rect width="154" height="3" transform="translate(563 117)"/><path d="M89,52H85V38.4A8.1,8.1,0,0,0,90,31V23a8.024,8.024,0,0,0-8-8H65V7a2.006,2.006,0,0,0-2-2H37a2.006,2.006,0,0,0-2,2v8H18a8.024,8.024,0,0,0-8,8v8a8.1,8.1,0,0,0,5,7.4V52H11a6.018,6.018,0,0,0-6,6V82a6.018,6.018,0,0,0,6,6h4.1A8.069,8.069,0,0,0,23,95H77a7.993,7.993,0,0,0,7.9-7H89a6.018,6.018,0,0,0,6-6V58A6.018,6.018,0,0,0,89,52ZM15,84H11a2.006,2.006,0,0,1-2-2V58a2.006,2.006,0,0,1,2-2h4ZM65,19h6V77.2l-3,3-3-3ZM39,9H61v6H39Zm0,10H61V35H39Zm0,20H61V70H39ZM29,19h6V77.2l-3,3-3-3ZM14,31V23a4.012,4.012,0,0,1,4-4h7V35H18A4.012,4.012,0,0,1,14,31Zm11,8V70H19V39ZM81,87a4.012,4.012,0,0,1-4,4H23a4.012,4.012,0,0,1-4-4V74h6v4a1.974,1.974,0,0,0,.6,1.4l5,5a1.933,1.933,0,0,0,2.8,0l5-5A1.974,1.974,0,0,0,39,78V74H61v4a1.974,1.974,0,0,0,.6,1.4l5,5a1.933,1.933,0,0,0,2.8,0l5-5A1.974,1.974,0,0,0,75,78V74h6Zm0-17H75V39h6Zm1-35H75V19h7a4.012,4.012,0,0,1,4,4v8A4.012,4.012,0,0,1,82,35Zm9,47a2.006,2.006,0,0,1-2,2H85V56h4a2.006,2.006,0,0,1,2,2Z" transform="translate(457 226)"/><path d="M93,87.8H88.5a6.465,6.465,0,0,0,.4-2v-70a6.018,6.018,0,0,0-6-6h-16a6.046,6.046,0,0,0-6,5.8,6.251,6.251,0,0,0-2-1.3l-15-5.6a6.107,6.107,0,0,0-4.6.1,5.761,5.761,0,0,0-3.1,3.4L34,17.7l-3.5,9.4-16.2,43-2.8,7.5a6.107,6.107,0,0,0,.1,4.6,5.591,5.591,0,0,0,3.3,3.1l6.5,2.5H7a2,2,0,0,0,0,4H93a2,2,0,1,0,0-4ZM39.8,13.5a2.168,2.168,0,0,1,1-1.1,2.353,2.353,0,0,1,.8-.2,1.7,1.7,0,0,1,.7.1l15,5.6a2.13,2.13,0,0,1,1.2,2.6l-1.4,3.8L38.4,17.2ZM37,21l18.7,7.1-.5,1.3-1.6,4.3L34.9,26.6ZM33.8,86.1a1.981,1.981,0,0,1-1.1,1.1,1.95,1.95,0,0,1-1.5,0l-15-5.7a2.168,2.168,0,0,1-1.1-1,1.95,1.95,0,0,1,0-1.5l2.1-5.6,18.8,7ZM18.7,69.6,33.5,30.3l18.7,7.1L37.4,76.7ZM37.4,87.8c0-.1.1-.2.2-.3L40.4,80,58.6,31.6l1.5-4,.7-1.8v60a6.448,6.448,0,0,0,.3,2Zm47.4-2a2.006,2.006,0,0,1-2,2h-16a2.006,2.006,0,0,1-2-2v-6h20Zm0-10h-20v-42h20Zm0-46h-20v-6h20Zm0-10h-20v-4a2.006,2.006,0,0,1,2-2h16a2.006,2.006,0,0,1,2,2Z" transform="translate(457 403.703)"/><g transform="translate(711.037 404)"><path d="M85.9,87.7l-2-9.5A18.843,18.843,0,0,0,82.5,74,7.017,7.017,0,0,0,86,67.9a7.487,7.487,0,0,0-1.6-4.5,1.083,1.083,0,0,1,0-1.1A7.057,7.057,0,0,0,86,57.8a7.266,7.266,0,0,0-1.6-4.5,1.083,1.083,0,0,1,0-1.1,7.037,7.037,0,0,0-1.5-10.3A3.987,3.987,0,0,1,81,38.6V36a31,31,0,0,0-62,0v2.9a3.987,3.987,0,0,1-1.9,3.3A7.117,7.117,0,0,0,14,48a7.487,7.487,0,0,0,1.6,4.5,1.083,1.083,0,0,1,0,1.1A7.057,7.057,0,0,0,14,58.1a7.266,7.266,0,0,0,1.6,4.5,1.083,1.083,0,0,1,0,1.1,7.09,7.09,0,0,0,1.9,10.6,18.842,18.842,0,0,0-1.4,4.2l-2,9.5a5.97,5.97,0,0,0,1.2,5A5.885,5.885,0,0,0,20,95.2H80A6.182,6.182,0,0,0,84.7,93,6.432,6.432,0,0,0,85.9,87.7ZM18.7,59.9a2.929,2.929,0,0,1,0-3.8,4.834,4.834,0,0,0,0-6.2A2.64,2.64,0,0,1,18,48a3.127,3.127,0,0,1,1.3-2.5A8.111,8.111,0,0,0,23,38.9V36a27,27,0,0,1,54,0v2.9a7.976,7.976,0,0,0,3.7,6.6A3.127,3.127,0,0,1,82,48a2.64,2.64,0,0,1-.7,1.9,4.834,4.834,0,0,0,0,6.2A3.157,3.157,0,0,1,82,58a2.64,2.64,0,0,1-.7,1.9,4.834,4.834,0,0,0,0,6.2A3.157,3.157,0,0,1,82,68a3.112,3.112,0,0,1-1.6,2.7A19.418,19.418,0,0,0,65,63H59V58.8A21.18,21.18,0,0,0,71,39.7V29a1.8,1.8,0,0,0-.7-1.5,2.353,2.353,0,0,0-1.6-.5l-2.9.4a13.5,13.5,0,0,1-14-7.3,2.023,2.023,0,0,0-3.6,0,13.355,13.355,0,0,1-14,7.3L31.3,27a1.845,1.845,0,0,0-1.6.5A2.127,2.127,0,0,0,29,29V39.7A21.18,21.18,0,0,0,41,58.8V63H35a18.626,18.626,0,0,0-8.7,2.1,18.983,18.983,0,0,0-6.7,5.6A2.925,2.925,0,0,1,18,68a2.64,2.64,0,0,1,.7-1.9A4.834,4.834,0,0,0,18.7,59.9Zm26.3,4V60.2a21.133,21.133,0,0,0,10,0V65a2.006,2.006,0,0,0,2,2h6v6a2.006,2.006,0,0,1-2,2H39a2.006,2.006,0,0,1-2-2V67h6C45,67,45,65.1,45,63.9ZM33,39.7V31.3l.7.1A17.509,17.509,0,0,0,50,24.8a17.29,17.29,0,0,0,16.3,6.6l.7-.1v8.4a17,17,0,1,1-34,0ZM81.6,90.3A1.99,1.99,0,0,1,80,91H20a2.36,2.36,0,0,1-1.6-.7,2.09,2.09,0,0,1-.4-1.7l2-9.5a15.547,15.547,0,0,1,13-12V73a6.018,6.018,0,0,0,6,6H61a6.018,6.018,0,0,0,6-6V67.1a15.42,15.42,0,0,1,13,12l2,9.5A2.09,2.09,0,0,1,81.6,90.3Z"/><path d="M58,44a2,2,0,0,0-4,0c0,1.6-1.8,3-4,3s-4-1.4-4-3a2,2,0,0,0-4,0c0,3.9,3.6,7,8,7S58,47.9,58,44Z"/></g><path d="M22,72.6v.8c0,.1-.1.3-.1.4s-.1.2-.2.3-.2.2-.2.3a2.092,2.092,0,0,1-.6.4,1.645,1.645,0,0,1-.9.2,1.2,1.2,0,0,1-.8-.2,2.506,2.506,0,0,1-.7-.4c-.1-.1-.2-.2-.2-.3-.1-.1-.1-.2-.2-.3s-.1-.2-.1-.4v-.8c0-.1.1-.3.1-.4s.1-.2.2-.3.1-.2.2-.3a1.933,1.933,0,0,1,2.8,0c.1.1.2.2.2.3.1.1.1.2.2.3C21.9,72.3,21.9,72.5,22,72.6Zm-.2-10.4c0-.1-.1-.2-.2-.3s-.1-.2-.2-.3a1.789,1.789,0,0,0-1.8-.5c-.1,0-.2.1-.4.1-.1.1-.2.1-.4.2-.1.1-.2.2-.3.2-.1.1-.2.2-.2.3-.1.1-.1.2-.2.3s-.1.2-.1.4v.8c0,.1.1.3.1.4s.1.2.2.3l.3.3a1.933,1.933,0,0,0,2.8,0c.1-.1.2-.2.2-.3.1-.1.1-.2.2-.3s.1-.2.1-.4v-.8A.756.756,0,0,0,21.8,62.2Zm30,10c0-.1-.1-.2-.2-.3s-.2-.2-.2-.3a1.933,1.933,0,0,0-2.8,0c-.1.1-.2.2-.2.3-.1.1-.1.2-.2.3s-.1.2-.1.4v.8c0,.1.1.3.1.4s.1.2.2.3.1.2.2.3A1.974,1.974,0,0,0,50,75h.4c.1,0,.3-.1.4-.1s.2-.1.3-.2.2-.2.3-.2c.1-.1.2-.2.2-.3.1-.1.1-.2.2-.3s.1-.2.1-.4v-.8A.749.749,0,0,0,51.8,72.2Zm0-10c0-.1-.1-.2-.2-.3s-.2-.2-.2-.3a1.789,1.789,0,0,0-1.8-.5c-.1,0-.2.1-.4.1-.1.1-.2.1-.3.2s-.2.2-.3.2c-.1.1-.2.2-.2.3-.1.1-.1.2-.2.3s-.1.2-.1.4v.8c0,.1.1.3.1.4s.1.2.2.3.1.2.2.3A1.974,1.974,0,0,0,50,65a1.2,1.2,0,0,0,.8-.2c.2-.1.5-.2.6-.4.1-.1.2-.2.2-.3.1-.1.1-.2.2-.3s.1-.2.1-.4v-.8A.756.756,0,0,0,51.8,62.2Zm29.3,9.1c-.1-.1-.2-.1-.3-.2-.1,0-.2-.1-.4-.1h-.8c-.1,0-.3.1-.4.1-.1.1-.2.1-.3.2s-.2.2-.3.2c-.1.1-.2.2-.2.3-.1.1-.1.2-.2.3,0,.1-.1.2-.1.4v.4a2.2,2.2,0,0,0,.1.8c.1.2.2.5.4.6a2.092,2.092,0,0,0,.6.4.912.912,0,0,0,.8.3h.4c.1,0,.3-.1.4-.1s.2-.1.3-.2.2-.2.3-.2a2.092,2.092,0,0,0,.4-.6A1.645,1.645,0,0,0,82,73a1.974,1.974,0,0,0-.6-1.4Zm0-10c-.1-.1-.2-.1-.3-.2-.1,0-.2-.1-.4-.1A1.964,1.964,0,0,0,78,63a1.974,1.974,0,0,0,.6,1.4,2.092,2.092,0,0,0,.6.4,1.2,1.2,0,0,0,.8.2h.4c.1,0,.3-.1.4-.1s.2-.1.3-.2.2-.2.3-.2A2.4,2.4,0,0,0,82,63a1.974,1.974,0,0,0-.6-1.4ZM92,47V89a6.018,6.018,0,0,1-6,6H14a6.018,6.018,0,0,1-6-6V47a6.018,6.018,0,0,1,6-6H29.4L48,29.9V7a2.006,2.006,0,0,1,2-2H66a6.018,6.018,0,0,1,6,6v4a6.018,6.018,0,0,1-6,6H52v8.9L70.6,41H86A6.018,6.018,0,0,1,92,47ZM68,81V55H62V81ZM58,81V55H42V81ZM38,81V55H32V81ZM28,81V55H12V81Zm44,0H88V55H72ZM86,45H82v6h6V47A2.006,2.006,0,0,0,86,45Zm-8,0H72v6h6Zm-10-.9L50,33.3,32,44.1V51H68ZM66,9H52v8H66a2.006,2.006,0,0,0,2-2V11A2.006,2.006,0,0,0,66,9ZM28,45H22v6h6ZM12,51h6V45H14a2.006,2.006,0,0,0-2,2ZM88,85H12v4a2.006,2.006,0,0,0,2,2H86a2.006,2.006,0,0,0,2-2Z" transform="translate(460 577)"/><path d="M89,20.3H85v-6a2.034,2.034,0,0,0-1.7-2A45.643,45.643,0,0,0,50,19.8a45.181,45.181,0,0,0-33.3-7.5,2.034,2.034,0,0,0-1.7,2v6H11a6.018,6.018,0,0,0-6,6v56a6.018,6.018,0,0,0,6,6H89a6.018,6.018,0,0,0,6-6v-56A6.018,6.018,0,0,0,89,20.3ZM29,16a43.1,43.1,0,0,1,10,2.5V30.9l-3.7-3.2a2.132,2.132,0,0,0-2.3-.2l-4,2.3ZM19,70a41.494,41.494,0,0,1,24,4.3H19ZM48,84.3H11a2.006,2.006,0,0,1-2-2v-56a2.006,2.006,0,0,1,2-2h4v52a2.006,2.006,0,0,0,2,2H48Zm0-11.8a45.16,45.16,0,0,0-24-6.8,40.7,40.7,0,0,0-5,.3V16q3-.3,6-.3V33.3A1.936,1.936,0,0,0,26,35a1.817,1.817,0,0,0,2,0l5.8-3.3,5.9,5.1a2.106,2.106,0,0,0,1.3.5,1.884,1.884,0,0,0,.8-.2A1.975,1.975,0,0,0,43,35.3v-15a50.875,50.875,0,0,1,5,3Zm4-49.2A41.558,41.558,0,0,1,81,16V66a46.023,46.023,0,0,0-29,6.5ZM81,70v4.3H57A41.494,41.494,0,0,1,81,70ZM91,82.3a2.006,2.006,0,0,1-2,2H52v-6H83a2.006,2.006,0,0,0,2-2v-52h4a2.006,2.006,0,0,1,2,2Z" transform="translate(711 226.333)"/></g></svg>