<svg xmlns="http://www.w3.org/2000/svg" xmlns:xlink="http://www.w3.org/1999/xlink" width="1280" height="1371" viewBox="0 0 1280 1371"><defs><clipPath id="b"><rect width="1280" height="1371"/></clipPath></defs><g id="a" clip-path="url(#b)"><rect width="1280" height="1371" fill="#f5f5f5"/><text transform="translate(640 98)" font-size="46" font-family="Poppins-Bold, Poppins" font-weight="700"><tspan x="-145.13" y="0">Typography</tspan></text><text transform="translate(227 262)" font-size="46" font-family="Poppins-Bold, Poppins" font-weight="700"><tspan x="-88.895" y="0">Display</tspan></text><text transform="translate(316 386)" font-size="72" font-family="Poppins-Bold, Poppins" font-weight="700"><tspan x="-177.876" y="0">Heading 1</tspan></text><text transform="translate(1076 386)" font-size="72" font-family="Poppins-Bold, Poppins" font-weight="700"><tspan x="-47.484" y="0">H 1</tspan></text><text transform="translate(256 514)" font-size="46" font-family="Poppins-Bold, Poppins" font-weight="700"><tspan x="-118.128" y="0">Heading 2</tspan></text><text transform="translate(1087 517)" font-size="46" font-family="Poppins-Bold, Poppins" font-weight="700"><tspan x="-34.822" y="0">H 2</tspan></text><text transform="translate(241 643)" font-size="40" font-family="Poppins-Bold, Poppins" font-weight="700"><tspan x="-103.4" y="0">Heading 3</tspan></text><text transform="translate(1092 643)" font-size="40" font-family="Poppins-Bold, Poppins" font-weight="700"><tspan x="-30.96" y="0">H 3</tspan></text><text transform="translate(224 770)" font-size="32" font-family="Poppins-Bold, Poppins" font-weight="700"><tspan x="-83.872" y="0">Heading 4</tspan></text><text transform="translate(1097 770)" font-size="32" font-family="Poppins-Bold, Poppins" font-weight="700"><tspan x="-25.92" y="0">H 4</tspan></text><text transform="translate(201 885)" font-size="24" font-family="Poppins-Bold, Poppins" font-weight="700"><tspan x="-62.58" y="0">Heading 5</tspan></text><text transform="translate(1103 885)" font-size="24" font-family="Poppins-Bold, Poppins" font-weight="700"><tspan x="-19.116" y="0">H 5</tspan></text><rect width="98" height="3" transform="translate(591 122)"/><text transform="translate(138 1003)" font-size="16" font-family="Poppins-Regular, Poppins"><tspan x="0" y="0">&quot;If we truly believe that every girl in every corner </tspan><tspan x="0" y="24">of the globe is worthy of an education as our own daughters and </tspan><tspan x="0" y="48">granddaughters are, then we need to deepen our commitment to these efforts&quot; - </tspan><tspan x="0" y="72">Michelle Obama</tspan></text></g></svg>