<svg xmlns="http://www.w3.org/2000/svg" width="268.4" height="152.199" viewBox="0 0 268.4 152.199"><path d="M95.6,6.1A124.394,124.394,0,0,1,58.919,1.014,79.317,79.317,0,0,1,30.932-13.854,64.852,64.852,0,0,1,13.111-37.835,80.509,80.509,0,0,1,6.9-70a80.509,80.509,0,0,1,6.211-32.165,64.852,64.852,0,0,1,17.821-23.981,79.317,79.317,0,0,1,27.987-14.868A124.4,124.4,0,0,1,95.6-146.1a125.094,125.094,0,0,1,36.8,5.085,79.467,79.467,0,0,1,28.046,14.868,64.808,64.808,0,0,1,17.844,23.982A80.456,80.456,0,0,1,184.5-70a80.456,80.456,0,0,1-6.214,32.165,64.808,64.808,0,0,1-17.844,23.982A79.467,79.467,0,0,1,132.4,1.015,125.1,125.1,0,0,1,95.6,6.1Zm0-149.2C41.937-143.1,9.9-115.773,9.9-70S41.937,3.1,95.6,3.1c53.788,0,85.9-27.327,85.9-73.1S149.388-143.1,95.6-143.1ZM275.3,1.5H231.5V-95.094A87.549,87.549,0,0,1,213.993-87.3a154.11,154.11,0,0,1-22.544,5.379l-1.75.3V-117.1l1.29-.182c17.293-2.444,37.32-11.8,51.02-23.842l.425-.373H275.3Zm-40.8-3h37.8v-137H243.562a106.81,106.81,0,0,1-23.869,15.33,101.086,101.086,0,0,1-26.994,8.662v29.326c16.9-3,29.825-7.548,39.478-13.872l2.322-1.521ZM95.8-27.1a65.93,65.93,0,0,1-19.789-2.77,41,41,0,0,1-15.006-8.258,35.614,35.614,0,0,1-9.46-13.539A49.1,49.1,0,0,1,48.3-70a49.1,49.1,0,0,1,3.245-18.334,35.614,35.614,0,0,1,9.46-13.539,41,41,0,0,1,15.006-8.258A65.93,65.93,0,0,1,95.8-112.9a65.242,65.242,0,0,1,19.675,2.77,40.854,40.854,0,0,1,14.946,8.259,35.666,35.666,0,0,1,9.436,13.538A49.159,49.159,0,0,1,143.1-70a49.159,49.159,0,0,1-3.242,18.333,35.666,35.666,0,0,1-9.436,13.538,40.854,40.854,0,0,1-14.946,8.259A65.242,65.242,0,0,1,95.8-27.1Zm0-82.8c-28.28,0-44.5,14.543-44.5,39.9S67.52-30.1,95.8-30.1c28.153,0,44.3-14.543,44.3-39.9S123.953-109.9,95.8-109.9Z" transform="translate(-6.9 146.1)"/></svg>