<svg xmlns="http://www.w3.org/2000/svg" width="338.4" height="152.199" viewBox="0 0 338.4 152.199"><path d="M95.6,6.1A124.393,124.393,0,0,1,58.919,1.014,79.316,79.316,0,0,1,30.932-13.854,64.853,64.853,0,0,1,13.111-37.835,80.508,80.508,0,0,1,6.9-70a80.508,80.508,0,0,1,6.211-32.165,64.853,64.853,0,0,1,17.821-23.981,79.316,79.316,0,0,1,27.987-14.868A124.393,124.393,0,0,1,95.6-146.1a125.1,125.1,0,0,1,36.8,5.085,79.467,79.467,0,0,1,28.046,14.868,64.807,64.807,0,0,1,17.844,23.982A80.456,80.456,0,0,1,184.5-70a80.456,80.456,0,0,1-6.214,32.165,64.807,64.807,0,0,1-17.844,23.982A79.467,79.467,0,0,1,132.4,1.015,125.1,125.1,0,0,1,95.6,6.1Zm0-149.2C41.937-143.1,9.9-115.773,9.9-70S41.937,3.1,95.6,3.1c53.788,0,85.9-27.327,85.9-73.1S149.388-143.1,95.6-143.1ZM345.3,1.5H192.1V-17.7l.013-.1A54.873,54.873,0,0,1,198.9-37.707a70.766,70.766,0,0,1,14.447-17.585,105.451,105.451,0,0,1,21.575-14.684,159.513,159.513,0,0,1,28.235-11.258c1.276-.4,2.546-.8,3.774-1.19,9.217-2.9,17.177-5.406,22.876-8.279,5.793-2.921,8.492-5.875,8.492-9.3,0-4.7-4.625-7.618-8.5-9.241-5.329-2.23-12.573-3.459-20.4-3.459-18.367,0-35.846,7.665-50.547,22.168L217.812-89.5l-24.243-23.369.865-1.069a71.065,71.065,0,0,1,13.5-12.654,92.463,92.463,0,0,1,17.82-10.055,109.411,109.411,0,0,1,21.35-6.645,120.754,120.754,0,0,1,24.094-2.4,124.075,124.075,0,0,1,25.474,2.566,85.854,85.854,0,0,1,22.808,7.986c7.13,3.814,12.71,8.51,16.586,13.956A34.471,34.471,0,0,1,342.5-100.8a37.019,37.019,0,0,1-1.058,8.894,34.889,34.889,0,0,1-3.068,7.989A44.118,44.118,0,0,1,326.995-70.56c-8.813,7.149-21.423,13.165-38.553,18.393a233.626,233.626,0,0,0-29.895,11.32c-7.365,3.524-11.453,6.392-13.713,8.547H345.3Zm-150.2-3H342.3V-29.3H238.862l1.474-2.308c6.006-9.4,32.16-18.711,47.216-23.424l.01,0c16.755-5.113,29.035-10.954,37.543-17.855,9.686-7.857,14.395-16.987,14.395-27.91,0-16.726-11.655-26.472-21.433-31.7-12.292-6.576-28.937-10.2-46.867-10.2-30.046,0-58.07,11.3-73.558,29.585L217.8-93.688a82.378,82.378,0,0,1,23.548-16.059A68.964,68.964,0,0,1,269.4-115.7c8.212,0,15.866,1.311,21.554,3.691a21,21,0,0,1,7.36,4.8A10.37,10.37,0,0,1,301.3-100a10,10,0,0,1-2.877,6.887,25.091,25.091,0,0,1-7.264,5.089c-5.916,2.983-13.984,5.522-23.326,8.462-1.23.387-2.5.788-3.78,1.192l-.025.008C223.83-66.38,198.714-44.2,195.1-17.5ZM95.8-27.1a65.929,65.929,0,0,1-19.789-2.77,41,41,0,0,1-15.006-8.258,35.614,35.614,0,0,1-9.46-13.539A49.1,49.1,0,0,1,48.3-70a49.1,49.1,0,0,1,3.245-18.334,35.614,35.614,0,0,1,9.46-13.539,41,41,0,0,1,15.006-8.258A65.929,65.929,0,0,1,95.8-112.9a65.242,65.242,0,0,1,19.675,2.77,40.855,40.855,0,0,1,14.946,8.259,35.666,35.666,0,0,1,9.436,13.538A49.158,49.158,0,0,1,143.1-70a49.158,49.158,0,0,1-3.242,18.333,35.665,35.665,0,0,1-9.436,13.538,40.855,40.855,0,0,1-14.946,8.259A65.242,65.242,0,0,1,95.8-27.1Zm0-82.8c-28.28,0-44.5,14.543-44.5,39.9S67.52-30.1,95.8-30.1c28.153,0,44.3-14.543,44.3-39.9S123.953-109.9,95.8-109.9Z" transform="translate(-6.9 146.1)"/></svg>