<svg xmlns="http://www.w3.org/2000/svg" width="340" height="152.199" viewBox="0 0 340 152.199"><path d="M95.6,6.1A124.393,124.393,0,0,1,58.919,1.014,79.316,79.316,0,0,1,30.932-13.854,64.853,64.853,0,0,1,13.111-37.835,80.508,80.508,0,0,1,6.9-70a80.508,80.508,0,0,1,6.211-32.165,64.853,64.853,0,0,1,17.821-23.981,79.316,79.316,0,0,1,27.987-14.868A124.393,124.393,0,0,1,95.6-146.1a125.1,125.1,0,0,1,36.8,5.085,79.467,79.467,0,0,1,28.046,14.868,64.807,64.807,0,0,1,17.844,23.982A80.456,80.456,0,0,1,184.5-70a80.456,80.456,0,0,1-6.214,32.165,64.807,64.807,0,0,1-17.844,23.982A79.467,79.467,0,0,1,132.4,1.015,125.1,125.1,0,0,1,95.6,6.1Zm0-149.2C41.937-143.1,9.9-115.773,9.9-70S41.937,3.1,95.6,3.1c53.788,0,85.9-27.327,85.9-73.1S149.388-143.1,95.6-143.1ZM268.8,5.7a128.69,128.69,0,0,1-24.537-2.3,109.007,109.007,0,0,1-21.7-6.566,91.857,91.857,0,0,1-18.324-10.32,77.861,77.861,0,0,1-14.4-13.562l-1.054-1.291,30.3-19.834.858,1C231-34.3,247.344-27.5,267.2-27.5c6.615,0,16.059-.627,23.49-3.617,6.775-2.725,10.21-6.791,10.21-12.083,0-5.436-3.151-9-9.918-11.225-5.634-1.85-13.4-2.675-25.182-2.675H242.1V-87.3h23.7c9.038,0,16.652-1.016,22.019-2.937,6.025-2.157,9.081-5.375,9.081-9.563,0-4.31-3.13-7.611-9.3-9.812C280.9-112,272.375-112.5,266.4-112.5c-19.262,0-34.557,6.484-45.458,19.273l-.892,1.046-28.8-20.512.977-1.237a72.665,72.665,0,0,1,13.621-13.164,86.1,86.1,0,0,1,17.489-10.01,103.143,103.143,0,0,1,20.825-6.366A123.094,123.094,0,0,1,267.8-145.7a152.764,152.764,0,0,1,27.244,2.324,93.528,93.528,0,0,1,23.453,7.222c7.172,3.425,12.769,7.675,16.636,12.631A29.442,29.442,0,0,1,341.5-105a30.947,30.947,0,0,1-2.493,12.233,32.517,32.517,0,0,1-7.024,10.28,37.926,37.926,0,0,1-10.842,7.479,43.882,43.882,0,0,1-6.592,2.433,70.462,70.462,0,0,1,7.328,2.273,49.325,49.325,0,0,1,12.656,6.784,31.774,31.774,0,0,1,8.975,10.324A29.919,29.919,0,0,1,346.9-39c0,13.891-7.97,25.45-23.049,33.426a92.167,92.167,0,0,1-24.728,8.432A153.347,153.347,0,0,1,268.8,5.7ZM193.232-27.669C209.779-8.347,237.206,2.7,268.8,2.7c21.277,0,40.329-3.88,53.649-10.926C336.482-15.649,343.9-26.291,343.9-39c0-22.724-23.269-29.878-37.139-32.119l.059-2.97C325.473-76.35,338.5-89.061,338.5-105c0-15.1-11.581-23.806-21.3-28.446-12.494-5.967-30.039-9.254-49.4-9.254-30.507,0-56.722,10.7-72.231,29.4L219.564-96.21a55.4,55.4,0,0,1,19.03-13.837A68.411,68.411,0,0,1,266.4-115.5c6.211,0,15.106.531,22.2,3.062a20.938,20.938,0,0,1,8,4.728A10.968,10.968,0,0,1,299.9-99.8a10.738,10.738,0,0,1-3.184,7.705,20.512,20.512,0,0,1-7.885,4.682C283.143-85.376,275.179-84.3,265.8-84.3H245.1v24.2h20.7c5.557,0,10.179.182,14.129.557a55.42,55.42,0,0,1,11.989,2.268,19.724,19.724,0,0,1,8.623,5.084A12.831,12.831,0,0,1,303.9-43.2a13.492,13.492,0,0,1-3.455,9.163,22.5,22.5,0,0,1-8.635,5.7c-7.876,3.168-17.73,3.833-24.61,3.833a72.482,72.482,0,0,1-28.538-5.42,56.765,56.765,0,0,1-20.129-14.312ZM95.8-27.1a65.929,65.929,0,0,1-19.789-2.77,41,41,0,0,1-15.006-8.258,35.614,35.614,0,0,1-9.46-13.539A49.1,49.1,0,0,1,48.3-70a49.1,49.1,0,0,1,3.245-18.334,35.614,35.614,0,0,1,9.46-13.539,41,41,0,0,1,15.006-8.258A65.929,65.929,0,0,1,95.8-112.9a65.242,65.242,0,0,1,19.675,2.77,40.855,40.855,0,0,1,14.946,8.259,35.666,35.666,0,0,1,9.436,13.538A49.158,49.158,0,0,1,143.1-70a49.158,49.158,0,0,1-3.242,18.333,35.666,35.666,0,0,1-9.436,13.538,40.855,40.855,0,0,1-14.946,8.259A65.242,65.242,0,0,1,95.8-27.1Zm0-82.8c-28.28,0-44.5,14.543-44.5,39.9S67.52-30.1,95.8-30.1c28.153,0,44.3-14.543,44.3-39.9S123.953-109.9,95.8-109.9Z" transform="translate(-6.9 146.1)"/></svg>